ISO-10303-21;
HEADER;
/* Generated by software containing ST-Developer
 * from STEP Tools, Inc. (www.steptools.com) 
 */

FILE_DESCRIPTION(
/* description */ ('Hexagon Nut DIN 934 - M3 x 0.5'),
/* implementation_level */ '2;1');

FILE_NAME(
/* name */ 'Hexagon Nut DIN 934 - M3 x 0.5 Steel 6 Plain.step',
/* time_stamp */ '2026-09-10T10:37:01+02:00',
/* author */ (''),
/* organization */ (''),
/* preprocessor_version */ 'ST-DEVELOPER v20.2',
/* originating_system */ 'Autodesk Translation Framework v15.15.0.0',
/* authorisation */ '');

FILE_SCHEMA (('AUTOMOTIVE_DESIGN { 1 0 10303 214 3 1 1 }'));
ENDSEC;

DATA;
#10=MECHANICAL_DESIGN_GEOMETRIC_PRESENTATION_REPRESENTATION('',(#13),#406);
#11=SHAPE_REPRESENTATION_RELATIONSHIP('SRR','None',#413,#12);
#12=ADVANCED_BREP_SHAPE_REPRESENTATION('',(#14),#405);
#13=STYLED_ITEM('',(#422),#14);
#14=MANIFOLD_SOLID_BREP('Body1',#226);
#15=CYLINDRICAL_SURFACE('',#258,1.2645);
#16=FACE_BOUND('',#63,.T.);
#17=FACE_BOUND('',#66,.T.);
#18=(
BOUNDED_CURVE()
B_SPLINE_CURVE(2,(#328,#329,#330),.UNSPECIFIED.,.F.,.F.)
B_SPLINE_CURVE_WITH_KNOTS((3,3),(0.00014427274622339,0.321515614919824),
 .UNSPECIFIED.)
CURVE()
GEOMETRIC_REPRESENTATION_ITEM()
RATIONAL_B_SPLINE_CURVE((1.00013898062186,1.15486101937814,1.00013898062186))
REPRESENTATION_ITEM('')
);
#19=(
BOUNDED_CURVE()
B_SPLINE_CURVE(2,(#333,#334,#335),.UNSPECIFIED.,.F.,.F.)
B_SPLINE_CURVE_WITH_KNOTS((3,3),(0.000144272746223214,0.321515614919824),
 .UNSPECIFIED.)
CURVE()
GEOMETRIC_REPRESENTATION_ITEM()
RATIONAL_B_SPLINE_CURVE((1.00013898062186,1.15486101937814,1.00013898062186))
REPRESENTATION_ITEM('')
);
#20=(
BOUNDED_CURVE()
B_SPLINE_CURVE(2,(#338,#339,#340),.UNSPECIFIED.,.F.,.F.)
B_SPLINE_CURVE_WITH_KNOTS((3,3),(0.000144272746223221,0.321515614919824),
 .UNSPECIFIED.)
CURVE()
GEOMETRIC_REPRESENTATION_ITEM()
RATIONAL_B_SPLINE_CURVE((1.00013898062186,1.15486101937814,1.00013898062186))
REPRESENTATION_ITEM('')
);
#21=(
BOUNDED_CURVE()
B_SPLINE_CURVE(2,(#343,#344,#345),.UNSPECIFIED.,.F.,.F.)
B_SPLINE_CURVE_WITH_KNOTS((3,3),(0.000144272746223182,0.321515614919824),
 .UNSPECIFIED.)
CURVE()
GEOMETRIC_REPRESENTATION_ITEM()
RATIONAL_B_SPLINE_CURVE((1.00013898062186,1.15486101937814,1.00013898062186))
REPRESENTATION_ITEM('')
);
#22=(
BOUNDED_CURVE()
B_SPLINE_CURVE(2,(#352,#353,#354),.UNSPECIFIED.,.F.,.F.)
B_SPLINE_CURVE_WITH_KNOTS((3,3),(0.160829943833023,0.321515614919824),
 .UNSPECIFIED.)
CURVE()
GEOMETRIC_REPRESENTATION_ITEM()
RATIONAL_B_SPLINE_CURVE((1.0775,1.0775,1.00013898062186))
REPRESENTATION_ITEM('')
);
#23=(
BOUNDED_CURVE()
B_SPLINE_CURVE(2,(#356,#357,#358),.UNSPECIFIED.,.F.,.F.)
B_SPLINE_CURVE_WITH_KNOTS((3,3),(0.000144272746223266,0.321515614919824),
 .UNSPECIFIED.)
CURVE()
GEOMETRIC_REPRESENTATION_ITEM()
RATIONAL_B_SPLINE_CURVE((1.00013898062186,1.15486101937814,1.00013898062186))
REPRESENTATION_ITEM('')
);
#24=(
BOUNDED_CURVE()
B_SPLINE_CURVE(2,(#359,#360,#361),.UNSPECIFIED.,.F.,.F.)
B_SPLINE_CURVE_WITH_KNOTS((3,3),(0.000144272746223335,0.321515614919824),
 .UNSPECIFIED.)
CURVE()
GEOMETRIC_REPRESENTATION_ITEM()
RATIONAL_B_SPLINE_CURVE((1.00013898062186,1.15486101937814,1.00013898062186))
REPRESENTATION_ITEM('')
);
#25=(
BOUNDED_CURVE()
B_SPLINE_CURVE(2,(#363,#364,#365),.UNSPECIFIED.,.F.,.F.)
B_SPLINE_CURVE_WITH_KNOTS((3,3),(0.000144272746223451,0.321515614919824),
 .UNSPECIFIED.)
CURVE()
GEOMETRIC_REPRESENTATION_ITEM()
RATIONAL_B_SPLINE_CURVE((1.00013898062186,1.15486101937814,1.00013898062186))
REPRESENTATION_ITEM('')
);
#26=(
BOUNDED_CURVE()
B_SPLINE_CURVE(2,(#366,#367,#368),.UNSPECIFIED.,.F.,.F.)
B_SPLINE_CURVE_WITH_KNOTS((3,3),(0.000144272746223465,0.160829943833023),
 .UNSPECIFIED.)
CURVE()
GEOMETRIC_REPRESENTATION_ITEM()
RATIONAL_B_SPLINE_CURVE((1.00013898062186,1.0775,1.0775))
REPRESENTATION_ITEM('')
);
#27=(
BOUNDED_CURVE()
B_SPLINE_CURVE(2,(#371,#372,#373),.UNSPECIFIED.,.F.,.F.)
B_SPLINE_CURVE_WITH_KNOTS((3,3),(0.000144272746223089,0.321515614919824),
 .UNSPECIFIED.)
CURVE()
GEOMETRIC_REPRESENTATION_ITEM()
RATIONAL_B_SPLINE_CURVE((1.00013898062186,1.15486101937814,1.00013898062186))
REPRESENTATION_ITEM('')
);
#28=(
BOUNDED_CURVE()
B_SPLINE_CURVE(2,(#377,#378,#379),.UNSPECIFIED.,.F.,.F.)
B_SPLINE_CURVE_WITH_KNOTS((3,3),(0.160829943833024,0.321515614919824),
 .UNSPECIFIED.)
CURVE()
GEOMETRIC_REPRESENTATION_ITEM()
RATIONAL_B_SPLINE_CURVE((1.0775,1.0775,1.00013898062186))
REPRESENTATION_ITEM('')
);
#29=(
BOUNDED_CURVE()
B_SPLINE_CURVE(2,(#381,#382,#383),.UNSPECIFIED.,.F.,.F.)
B_SPLINE_CURVE_WITH_KNOTS((3,3),(0.000144272746223188,0.160829943833024),
 .UNSPECIFIED.)
CURVE()
GEOMETRIC_REPRESENTATION_ITEM()
RATIONAL_B_SPLINE_CURVE((1.00013898062186,1.0775,1.0775))
REPRESENTATION_ITEM('')
);
#30=(
BOUNDED_CURVE()
B_SPLINE_CURVE(2,(#387,#388,#389),.UNSPECIFIED.,.F.,.F.)
B_SPLINE_CURVE_WITH_KNOTS((3,3),(0.000144272746223177,0.321515614919824),
 .UNSPECIFIED.)
CURVE()
GEOMETRIC_REPRESENTATION_ITEM()
RATIONAL_B_SPLINE_CURVE((1.00013898062186,1.15486101937814,1.00013898062186))
REPRESENTATION_ITEM('')
);
#31=(
BOUNDED_CURVE()
B_SPLINE_CURVE(2,(#392,#393,#394),.UNSPECIFIED.,.F.,.F.)
B_SPLINE_CURVE_WITH_KNOTS((3,3),(0.000144272746223253,0.321515614919824),
 .UNSPECIFIED.)
CURVE()
GEOMETRIC_REPRESENTATION_ITEM()
RATIONAL_B_SPLINE_CURVE((1.00013898062186,1.15486101937814,1.00013898062186))
REPRESENTATION_ITEM('')
);
#32=PLANE('',#246);
#33=PLANE('',#247);
#34=PLANE('',#250);
#35=PLANE('',#251);
#36=PLANE('',#252);
#37=PLANE('',#253);
#38=PLANE('',#254);
#39=PLANE('',#257);
#40=FACE_OUTER_BOUND('',#53,.T.);
#41=FACE_OUTER_BOUND('',#54,.T.);
#42=FACE_OUTER_BOUND('',#55,.T.);
#43=FACE_OUTER_BOUND('',#56,.T.);
#44=FACE_OUTER_BOUND('',#57,.T.);
#45=FACE_OUTER_BOUND('',#58,.T.);
#46=FACE_OUTER_BOUND('',#59,.T.);
#47=FACE_OUTER_BOUND('',#60,.T.);
#48=FACE_OUTER_BOUND('',#61,.T.);
#49=FACE_OUTER_BOUND('',#62,.T.);
#50=FACE_OUTER_BOUND('',#64,.T.);
#51=FACE_OUTER_BOUND('',#65,.T.);
#52=FACE_OUTER_BOUND('',#67,.T.);
#53=EDGE_LOOP('',(#147,#148,#149,#150));
#54=EDGE_LOOP('',(#151,#152,#153,#154));
#55=EDGE_LOOP('',(#155,#156,#157,#158));
#56=EDGE_LOOP('',(#159,#160,#161,#162));
#57=EDGE_LOOP('',(#163,#164,#165,#166,#167,#168,#169,#170,#171,#172));
#58=EDGE_LOOP('',(#173,#174,#175,#176));
#59=EDGE_LOOP('',(#177,#178,#179,#180,#181,#182));
#60=EDGE_LOOP('',(#183,#184,#185,#186));
#61=EDGE_LOOP('',(#187,#188,#189,#190));
#62=EDGE_LOOP('',(#191));
#63=EDGE_LOOP('',(#192));
#64=EDGE_LOOP('',(#193,#194,#195,#196,#197,#198,#199,#200,#201,#202));
#65=EDGE_LOOP('',(#203));
#66=EDGE_LOOP('',(#204));
#67=EDGE_LOOP('',(#205,#206,#207,#208));
#68=LINE('',#315,#79);
#69=LINE('',#321,#80);
#70=LINE('',#326,#81);
#71=LINE('',#332,#82);
#72=LINE('',#342,#83);
#73=LINE('',#350,#84);
#74=LINE('',#374,#85);
#75=LINE('',#384,#86);
#76=LINE('',#390,#87);
#77=LINE('',#399,#88);
#78=LINE('',#402,#89);
#79=VECTOR('',#265,1.275);
#80=VECTOR('',#272,1.275);
#81=VECTOR('',#277,10.);
#82=VECTOR('',#278,10.);
#83=VECTOR('',#281,10.);
#84=VECTOR('',#286,2.894375);
#85=VECTOR('',#289,10.);
#86=VECTOR('',#292,10.);
#87=VECTOR('',#295,10.);
#88=VECTOR('',#304,2.894375);
#89=VECTOR('',#309,1.5);
#90=CIRCLE('',#241,1.2645);
#91=CIRCLE('',#242,1.5);
#92=CIRCLE('',#244,1.5);
#93=CIRCLE('',#245,1.2645);
#94=CIRCLE('',#249,2.6125);
#95=CIRCLE('',#255,2.6125);
#96=VERTEX_POINT('',#312);
#97=VERTEX_POINT('',#314);
#98=VERTEX_POINT('',#318);
#99=VERTEX_POINT('',#320);
#100=VERTEX_POINT('',#324);
#101=VERTEX_POINT('',#325);
#102=VERTEX_POINT('',#327);
#103=VERTEX_POINT('',#331);
#104=VERTEX_POINT('',#337);
#105=VERTEX_POINT('',#341);
#106=VERTEX_POINT('',#347);
#107=VERTEX_POINT('',#349);
#108=VERTEX_POINT('',#351);
#109=VERTEX_POINT('',#355);
#110=VERTEX_POINT('',#362);
#111=VERTEX_POINT('',#370);
#112=VERTEX_POINT('',#376);
#113=VERTEX_POINT('',#380);
#114=VERTEX_POINT('',#386);
#115=VERTEX_POINT('',#396);
#116=EDGE_CURVE('',#96,#96,#90,.T.);
#117=EDGE_CURVE('',#96,#97,#68,.T.);
#118=EDGE_CURVE('',#97,#97,#91,.T.);
#119=EDGE_CURVE('',#98,#98,#92,.T.);
#120=EDGE_CURVE('',#98,#99,#69,.T.);
#121=EDGE_CURVE('',#99,#99,#93,.T.);
#122=EDGE_CURVE('',#100,#101,#70,.T.);
#123=EDGE_CURVE('',#102,#100,#18,.T.);
#124=EDGE_CURVE('',#103,#102,#71,.T.);
#125=EDGE_CURVE('',#101,#103,#19,.T.);
#126=EDGE_CURVE('',#104,#102,#20,.T.);
#127=EDGE_CURVE('',#104,#105,#72,.T.);
#128=EDGE_CURVE('',#103,#105,#21,.T.);
#129=EDGE_CURVE('',#106,#106,#94,.T.);
#130=EDGE_CURVE('',#106,#107,#73,.T.);
#131=EDGE_CURVE('',#107,#108,#22,.T.);
#132=EDGE_CURVE('',#108,#109,#23,.T.);
#133=EDGE_CURVE('',#109,#104,#24,.T.);
#134=EDGE_CURVE('',#100,#110,#25,.T.);
#135=EDGE_CURVE('',#110,#107,#26,.T.);
#136=EDGE_CURVE('',#111,#101,#27,.T.);
#137=EDGE_CURVE('',#110,#111,#74,.T.);
#138=EDGE_CURVE('',#112,#111,#28,.T.);
#139=EDGE_CURVE('',#113,#112,#29,.T.);
#140=EDGE_CURVE('',#108,#113,#75,.T.);
#141=EDGE_CURVE('',#114,#113,#30,.T.);
#142=EDGE_CURVE('',#109,#114,#76,.T.);
#143=EDGE_CURVE('',#105,#114,#31,.T.);
#144=EDGE_CURVE('',#115,#115,#95,.T.);
#145=EDGE_CURVE('',#112,#115,#77,.T.);
#146=EDGE_CURVE('',#96,#99,#78,.T.);
#147=ORIENTED_EDGE('',*,*,#116,.F.);
#148=ORIENTED_EDGE('',*,*,#117,.T.);
#149=ORIENTED_EDGE('',*,*,#118,.F.);
#150=ORIENTED_EDGE('',*,*,#117,.F.);
#151=ORIENTED_EDGE('',*,*,#119,.F.);
#152=ORIENTED_EDGE('',*,*,#120,.T.);
#153=ORIENTED_EDGE('',*,*,#121,.F.);
#154=ORIENTED_EDGE('',*,*,#120,.F.);
#155=ORIENTED_EDGE('',*,*,#122,.F.);
#156=ORIENTED_EDGE('',*,*,#123,.F.);
#157=ORIENTED_EDGE('',*,*,#124,.F.);
#158=ORIENTED_EDGE('',*,*,#125,.F.);
#159=ORIENTED_EDGE('',*,*,#124,.T.);
#160=ORIENTED_EDGE('',*,*,#126,.F.);
#161=ORIENTED_EDGE('',*,*,#127,.T.);
#162=ORIENTED_EDGE('',*,*,#128,.F.);
#163=ORIENTED_EDGE('',*,*,#129,.F.);
#164=ORIENTED_EDGE('',*,*,#130,.T.);
#165=ORIENTED_EDGE('',*,*,#131,.T.);
#166=ORIENTED_EDGE('',*,*,#132,.T.);
#167=ORIENTED_EDGE('',*,*,#133,.T.);
#168=ORIENTED_EDGE('',*,*,#126,.T.);
#169=ORIENTED_EDGE('',*,*,#123,.T.);
#170=ORIENTED_EDGE('',*,*,#134,.T.);
#171=ORIENTED_EDGE('',*,*,#135,.T.);
#172=ORIENTED_EDGE('',*,*,#130,.F.);
#173=ORIENTED_EDGE('',*,*,#122,.T.);
#174=ORIENTED_EDGE('',*,*,#136,.F.);
#175=ORIENTED_EDGE('',*,*,#137,.F.);
#176=ORIENTED_EDGE('',*,*,#134,.F.);
#177=ORIENTED_EDGE('',*,*,#137,.T.);
#178=ORIENTED_EDGE('',*,*,#138,.F.);
#179=ORIENTED_EDGE('',*,*,#139,.F.);
#180=ORIENTED_EDGE('',*,*,#140,.F.);
#181=ORIENTED_EDGE('',*,*,#131,.F.);
#182=ORIENTED_EDGE('',*,*,#135,.F.);
#183=ORIENTED_EDGE('',*,*,#140,.T.);
#184=ORIENTED_EDGE('',*,*,#141,.F.);
#185=ORIENTED_EDGE('',*,*,#142,.F.);
#186=ORIENTED_EDGE('',*,*,#132,.F.);
#187=ORIENTED_EDGE('',*,*,#142,.T.);
#188=ORIENTED_EDGE('',*,*,#143,.F.);
#189=ORIENTED_EDGE('',*,*,#127,.F.);
#190=ORIENTED_EDGE('',*,*,#133,.F.);
#191=ORIENTED_EDGE('',*,*,#144,.F.);
#192=ORIENTED_EDGE('',*,*,#119,.T.);
#193=ORIENTED_EDGE('',*,*,#125,.T.);
#194=ORIENTED_EDGE('',*,*,#128,.T.);
#195=ORIENTED_EDGE('',*,*,#143,.T.);
#196=ORIENTED_EDGE('',*,*,#141,.T.);
#197=ORIENTED_EDGE('',*,*,#139,.T.);
#198=ORIENTED_EDGE('',*,*,#145,.T.);
#199=ORIENTED_EDGE('',*,*,#144,.T.);
#200=ORIENTED_EDGE('',*,*,#145,.F.);
#201=ORIENTED_EDGE('',*,*,#138,.T.);
#202=ORIENTED_EDGE('',*,*,#136,.T.);
#203=ORIENTED_EDGE('',*,*,#129,.T.);
#204=ORIENTED_EDGE('',*,*,#118,.T.);
#205=ORIENTED_EDGE('',*,*,#116,.T.);
#206=ORIENTED_EDGE('',*,*,#146,.T.);
#207=ORIENTED_EDGE('',*,*,#121,.T.);
#208=ORIENTED_EDGE('',*,*,#146,.F.);
#209=CONICAL_SURFACE('',#240,1.275,0.785398163397449);
#210=CONICAL_SURFACE('',#243,1.275,0.78539816339745);
#211=CONICAL_SURFACE('',#248,2.894375,1.0471975511966);
#212=CONICAL_SURFACE('',#256,2.894375,1.0471975511966);
#213=ADVANCED_FACE('',(#40),#209,.F.);
#214=ADVANCED_FACE('',(#41),#210,.F.);
#215=ADVANCED_FACE('',(#42),#32,.F.);
#216=ADVANCED_FACE('',(#43),#33,.F.);
#217=ADVANCED_FACE('',(#44),#211,.T.);
#218=ADVANCED_FACE('',(#45),#34,.F.);
#219=ADVANCED_FACE('',(#46),#35,.F.);
#220=ADVANCED_FACE('',(#47),#36,.F.);
#221=ADVANCED_FACE('',(#48),#37,.F.);
#222=ADVANCED_FACE('',(#49,#16),#38,.T.);
#223=ADVANCED_FACE('',(#50),#212,.T.);
#224=ADVANCED_FACE('',(#51,#17),#39,.T.);
#225=ADVANCED_FACE('',(#52),#15,.F.);
#226=CLOSED_SHELL('',(#213,#214,#215,#216,#217,#218,#219,#220,#221,#222,
#223,#224,#225));
#227=DERIVED_UNIT_ELEMENT(#229,1.);
#228=DERIVED_UNIT_ELEMENT(#408,-3.);
#229=(
MASS_UNIT()
NAMED_UNIT(*)
SI_UNIT(.KILO.,.GRAM.)
);
#230=DERIVED_UNIT((#227,#228));
#231=MEASURE_REPRESENTATION_ITEM('density measure',
POSITIVE_RATIO_MEASURE(8030.),#230);
#232=PROPERTY_DEFINITION_REPRESENTATION(#237,#234);
#233=PROPERTY_DEFINITION_REPRESENTATION(#238,#235);
#234=REPRESENTATION('material name',(#236),#405);
#235=REPRESENTATION('density',(#231),#405);
#236=DESCRIPTIVE_REPRESENTATION_ITEM('Steel 6, Plain','Steel 6, Plain');
#237=PROPERTY_DEFINITION('material property','material name',#415);
#238=PROPERTY_DEFINITION('material property','density of part',#415);
#239=AXIS2_PLACEMENT_3D('',#310,#259,#260);
#240=AXIS2_PLACEMENT_3D('',#311,#261,#262);
#241=AXIS2_PLACEMENT_3D('',#313,#263,#264);
#242=AXIS2_PLACEMENT_3D('',#316,#266,#267);
#243=AXIS2_PLACEMENT_3D('',#317,#268,#269);
#244=AXIS2_PLACEMENT_3D('',#319,#270,#271);
#245=AXIS2_PLACEMENT_3D('',#322,#273,#274);
#246=AXIS2_PLACEMENT_3D('',#323,#275,#276);
#247=AXIS2_PLACEMENT_3D('',#336,#279,#280);
#248=AXIS2_PLACEMENT_3D('',#346,#282,#283);
#249=AXIS2_PLACEMENT_3D('',#348,#284,#285);
#250=AXIS2_PLACEMENT_3D('',#369,#287,#288);
#251=AXIS2_PLACEMENT_3D('',#375,#290,#291);
#252=AXIS2_PLACEMENT_3D('',#385,#293,#294);
#253=AXIS2_PLACEMENT_3D('',#391,#296,#297);
#254=AXIS2_PLACEMENT_3D('',#395,#298,#299);
#255=AXIS2_PLACEMENT_3D('',#397,#300,#301);
#256=AXIS2_PLACEMENT_3D('',#398,#302,#303);
#257=AXIS2_PLACEMENT_3D('',#400,#305,#306);
#258=AXIS2_PLACEMENT_3D('',#401,#307,#308);
#259=DIRECTION('axis',(0.,0.,1.));
#260=DIRECTION('refdir',(1.,0.,0.));
#261=DIRECTION('center_axis',(0.,0.,-1.));
#262=DIRECTION('ref_axis',(-1.,0.,0.));
#263=DIRECTION('center_axis',(0.,0.,-1.));
#264=DIRECTION('ref_axis',(-1.,0.,0.));
#265=DIRECTION('',(0.707106781186548,-8.65956056235494E-17,-0.707106781186547));
#266=DIRECTION('center_axis',(0.,0.,1.));
#267=DIRECTION('ref_axis',(-1.,0.,0.));
#268=DIRECTION('center_axis',(0.,0.,1.));
#269=DIRECTION('ref_axis',(-1.,0.,0.));
#270=DIRECTION('center_axis',(0.,0.,-1.));
#271=DIRECTION('ref_axis',(-1.,0.,0.));
#272=DIRECTION('',(-0.707106781186548,8.65956056235494E-17,-0.707106781186547));
#273=DIRECTION('center_axis',(0.,0.,1.));
#274=DIRECTION('ref_axis',(-1.,0.,0.));
#275=DIRECTION('center_axis',(0.499999999999998,-0.86602540378444,0.));
#276=DIRECTION('ref_axis',(-0.86602540378444,-0.499999999999998,0.));
#277=DIRECTION('',(0.,0.,1.));
#278=DIRECTION('',(0.,0.,-1.));
#279=DIRECTION('center_axis',(1.,-1.39706960877889E-15,0.));
#280=DIRECTION('ref_axis',(-1.39706960877889E-15,-1.,0.));
#281=DIRECTION('',(0.,0.,1.));
#282=DIRECTION('center_axis',(0.,0.,1.));
#283=DIRECTION('ref_axis',(-1.,0.,0.));
#284=DIRECTION('center_axis',(0.,0.,-1.));
#285=DIRECTION('ref_axis',(1.,0.,0.));
#286=DIRECTION('',(0.866025403784439,-1.06057523872491E-16,0.5));
#287=DIRECTION('center_axis',(-0.500000000000002,-0.866025403784438,0.));
#288=DIRECTION('ref_axis',(-0.866025403784438,0.500000000000002,0.));
#289=DIRECTION('',(0.,0.,1.));
#290=DIRECTION('center_axis',(-1.,1.51953428869362E-15,0.));
#291=DIRECTION('ref_axis',(1.51953428869362E-15,1.,0.));
#292=DIRECTION('',(0.,0.,1.));
#293=DIRECTION('center_axis',(-0.499999999999999,0.866025403784439,0.));
#294=DIRECTION('ref_axis',(0.866025403784439,0.499999999999999,0.));
#295=DIRECTION('',(0.,0.,1.));
#296=DIRECTION('center_axis',(0.500000000000001,0.866025403784438,0.));
#297=DIRECTION('ref_axis',(0.866025403784438,-0.500000000000001,0.));
#298=DIRECTION('center_axis',(0.,0.,1.));
#299=DIRECTION('ref_axis',(1.,0.,0.));
#300=DIRECTION('center_axis',(0.,0.,-1.));
#301=DIRECTION('ref_axis',(1.,0.,0.));
#302=DIRECTION('center_axis',(0.,0.,-1.));
#303=DIRECTION('ref_axis',(-1.,0.,0.));
#304=DIRECTION('',(-0.866025403784438,1.06057523872491E-16,0.500000000000001));
#305=DIRECTION('center_axis',(0.,0.,-1.));
#306=DIRECTION('ref_axis',(-1.,0.,0.));
#307=DIRECTION('center_axis',(0.,0.,-1.));
#308=DIRECTION('ref_axis',(-1.,0.,0.));
#309=DIRECTION('',(0.,0.,1.));
#310=CARTESIAN_POINT('',(0.,0.,0.));
#311=CARTESIAN_POINT('Origin',(0.,0.,0.225));
#312=CARTESIAN_POINT('',(1.2645,-1.54856587752183E-16,0.2355));
#313=CARTESIAN_POINT('Origin',(0.,0.,0.2355));
#314=CARTESIAN_POINT('',(1.5,-1.83697019872103E-16,-1.73472347597681E-16));
#315=CARTESIAN_POINT('',(1.275,-1.56142466891288E-16,0.225));
#316=CARTESIAN_POINT('Origin',(0.,0.,0.));
#317=CARTESIAN_POINT('Origin',(0.,0.,2.175));
#318=CARTESIAN_POINT('',(1.5,-1.83697019872103E-16,2.4));
#319=CARTESIAN_POINT('Origin',(0.,0.,2.4));
#320=CARTESIAN_POINT('',(1.2645,1.54856587752183E-16,2.1645));
#321=CARTESIAN_POINT('',(1.275,-1.56142466891288E-16,2.175));
#322=CARTESIAN_POINT('Origin',(0.,0.,2.1645));
#323=CARTESIAN_POINT('Origin',(0.00142582323749751,3.17624967997292,2.4));
#324=CARTESIAN_POINT('',(6.79614785757937E-15,3.17542648054294,0.325005755075435));
#325=CARTESIAN_POINT('',(6.84594977782002E-15,3.17542648054294,2.07499424492456));
#326=CARTESIAN_POINT('',(6.93889390390723E-15,3.17542648054294,2.4));
#327=CARTESIAN_POINT('',(-2.75,1.58771324027148,0.325005755075436));
#328=CARTESIAN_POINT('Ctrl Pts',(-2.75,1.58771324027148,0.325005755075436));
#329=CARTESIAN_POINT('Ctrl Pts',(-1.375,2.38156986040721,-0.133327578257899));
#330=CARTESIAN_POINT('Ctrl Pts',(6.79614785757937E-15,3.17542648054294,
0.325005755075435));
#331=CARTESIAN_POINT('',(-2.75,1.58771324027148,2.07499424492456));
#332=CARTESIAN_POINT('',(-2.75,1.58771324027148,2.4));
#333=CARTESIAN_POINT('Ctrl Pts',(6.84594977782002E-15,3.17542648054294,
2.07499424492456));
#334=CARTESIAN_POINT('Ctrl Pts',(-1.37499999999999,2.38156986040721,2.5333275782579));
#335=CARTESIAN_POINT('Ctrl Pts',(-2.75,1.58771324027148,2.07499424492456));
#336=CARTESIAN_POINT('Origin',(-2.75,1.58935963913144,2.4));
#337=CARTESIAN_POINT('',(-2.75,-1.58771324027147,0.325005755075435));
#338=CARTESIAN_POINT('Ctrl Pts',(-2.75,-1.58771324027147,0.325005755075435));
#339=CARTESIAN_POINT('Ctrl Pts',(-2.75,4.71844785465692E-15,-0.133327578257898));
#340=CARTESIAN_POINT('Ctrl Pts',(-2.75,1.58771324027148,0.325005755075436));
#341=CARTESIAN_POINT('',(-2.75,-1.58771324027147,2.07499424492456));
#342=CARTESIAN_POINT('',(-2.75,-1.58771324027147,2.4));
#343=CARTESIAN_POINT('Ctrl Pts',(-2.75,1.58771324027148,2.07499424492456));
#344=CARTESIAN_POINT('Ctrl Pts',(-2.75,4.16333634234434E-15,2.5333275782579));
#345=CARTESIAN_POINT('Ctrl Pts',(-2.75,-1.58771324027147,2.07499424492456));
#346=CARTESIAN_POINT('Origin',(0.,0.,0.162740607127826));
#347=CARTESIAN_POINT('',(2.6125,-3.19938976277246E-16,-1.04083408558608E-16));
#348=CARTESIAN_POINT('Origin',(0.,0.,0.));
#349=CARTESIAN_POINT('',(2.75,-2.97185109433243E-16,0.0793856620135732));
#350=CARTESIAN_POINT('',(2.894375,-3.54458707928212E-16,0.162740607127826));
#351=CARTESIAN_POINT('',(2.75,-1.58771324027147,0.325005755075435));
#352=CARTESIAN_POINT('Ctrl Pts',(2.75,-2.57592349100965E-16,0.0793856620135732));
#353=CARTESIAN_POINT('Ctrl Pts',(2.75,-0.736860279185589,0.0793856620135727));
#354=CARTESIAN_POINT('Ctrl Pts',(2.75,-1.58771324027147,0.325005755075435));
#355=CARTESIAN_POINT('',(-5.13884981395275E-15,-3.17542648054294,0.325005755075435));
#356=CARTESIAN_POINT('Ctrl Pts',(2.75,-1.58771324027147,0.325005755075435));
#357=CARTESIAN_POINT('Ctrl Pts',(1.375,-2.38156986040721,-0.133327578257898));
#358=CARTESIAN_POINT('Ctrl Pts',(-5.13884981395275E-15,-3.17542648054294,
0.325005755075435));
#359=CARTESIAN_POINT('Ctrl Pts',(-5.10100438186943E-15,-3.17542648054294,
0.325005755075435));
#360=CARTESIAN_POINT('Ctrl Pts',(-1.375,-2.3815698604072,-0.133327578257898));
#361=CARTESIAN_POINT('Ctrl Pts',(-2.75,-1.58771324027147,0.325005755075435));
#362=CARTESIAN_POINT('',(2.75,1.58771324027147,0.325005755075435));
#363=CARTESIAN_POINT('Ctrl Pts',(6.85513523202616E-15,3.17542648054294,
0.325005755075435));
#364=CARTESIAN_POINT('Ctrl Pts',(1.375,2.3815698604072,-0.133327578257898));
#365=CARTESIAN_POINT('Ctrl Pts',(2.75,1.58771324027147,0.325005755075435));
#366=CARTESIAN_POINT('Ctrl Pts',(2.75,1.58771324027147,0.325005755075435));
#367=CARTESIAN_POINT('Ctrl Pts',(2.75,0.736860279185585,0.0793856620135736));
#368=CARTESIAN_POINT('Ctrl Pts',(2.75,-2.57592349100965E-16,0.0793856620135732));
#369=CARTESIAN_POINT('Origin',(2.75142582323749,1.58689004084148,2.4));
#370=CARTESIAN_POINT('',(2.75,1.58771324027147,2.07499424492456));
#371=CARTESIAN_POINT('Ctrl Pts',(2.75,1.58771324027147,2.07499424492456));
#372=CARTESIAN_POINT('Ctrl Pts',(1.375,2.3815698604072,2.5333275782579));
#373=CARTESIAN_POINT('Ctrl Pts',(6.63737638488812E-15,3.17542648054294,
2.07499424492456));
#374=CARTESIAN_POINT('',(2.75,1.58771324027147,2.4));
#375=CARTESIAN_POINT('Origin',(2.75,-1.58935963913144,2.4));
#376=CARTESIAN_POINT('',(2.75,-2.97185109433243E-16,2.32061433798643));
#377=CARTESIAN_POINT('Ctrl Pts',(2.75,-2.57592349100964E-16,2.32061433798643));
#378=CARTESIAN_POINT('Ctrl Pts',(2.75,0.736860279185585,2.32061433798643));
#379=CARTESIAN_POINT('Ctrl Pts',(2.75,1.58771324027147,2.07499424492456));
#380=CARTESIAN_POINT('',(2.75,-1.58771324027147,2.07499424492456));
#381=CARTESIAN_POINT('Ctrl Pts',(2.75,-1.58771324027147,2.07499424492456));
#382=CARTESIAN_POINT('Ctrl Pts',(2.75,-0.736860279185589,2.32061433798643));
#383=CARTESIAN_POINT('Ctrl Pts',(2.75,-2.57592349100964E-16,2.32061433798643));
#384=CARTESIAN_POINT('',(2.75,-1.58771324027147,2.4));
#385=CARTESIAN_POINT('Origin',(-0.00142582323749557,-3.17624967997292,2.4));
#386=CARTESIAN_POINT('',(-5.68672534196436E-15,-3.17542648054294,2.07499424492456));
#387=CARTESIAN_POINT('Ctrl Pts',(-5.68672534196436E-15,-3.17542648054294,
2.07499424492456));
#388=CARTESIAN_POINT('Ctrl Pts',(1.375,-2.38156986040721,2.5333275782579));
#389=CARTESIAN_POINT('Ctrl Pts',(2.75,-1.58771324027147,2.07499424492456));
#390=CARTESIAN_POINT('',(-5.41233724504764E-15,-3.17542648054294,2.4));
#391=CARTESIAN_POINT('Origin',(-2.75142582323749,-1.58689004084148,2.4));
#392=CARTESIAN_POINT('Ctrl Pts',(-2.75,-1.58771324027147,2.07499424492456));
#393=CARTESIAN_POINT('Ctrl Pts',(-1.375,-2.3815698604072,2.5333275782579));
#394=CARTESIAN_POINT('Ctrl Pts',(-5.72717963552522E-15,-3.17542648054294,
2.07499424492456));
#395=CARTESIAN_POINT('Origin',(-2.6125,0.,2.4));
#396=CARTESIAN_POINT('',(2.6125,-3.19938976277246E-16,2.4));
#397=CARTESIAN_POINT('Origin',(0.,0.,2.4));
#398=CARTESIAN_POINT('Origin',(0.,0.,2.23725939287217));
#399=CARTESIAN_POINT('',(2.894375,-3.54458707928212E-16,2.23725939287217));
#400=CARTESIAN_POINT('Origin',(-1.5,0.,0.));
#401=CARTESIAN_POINT('Origin',(0.,0.,1.2));
#402=CARTESIAN_POINT('',(1.2645,-1.54856587752183E-16,1.2));
#403=UNCERTAINTY_MEASURE_WITH_UNIT(LENGTH_MEASURE(0.01),#407,
'DISTANCE_ACCURACY_VALUE',
'Maximum model space distance between geometric entities at asserted c
onnectivities');
#404=UNCERTAINTY_MEASURE_WITH_UNIT(LENGTH_MEASURE(0.01),#407,
'DISTANCE_ACCURACY_VALUE',
'Maximum model space distance between geometric entities at asserted c
onnectivities');
#405=(
GEOMETRIC_REPRESENTATION_CONTEXT(3)
GLOBAL_UNCERTAINTY_ASSIGNED_CONTEXT((#403))
GLOBAL_UNIT_ASSIGNED_CONTEXT((#407,#409,#410))
REPRESENTATION_CONTEXT('','3D')
);
#406=(
GEOMETRIC_REPRESENTATION_CONTEXT(3)
GLOBAL_UNCERTAINTY_ASSIGNED_CONTEXT((#404))
GLOBAL_UNIT_ASSIGNED_CONTEXT((#407,#409,#410))
REPRESENTATION_CONTEXT('','3D')
);
#407=(
LENGTH_UNIT()
NAMED_UNIT(*)
SI_UNIT(.MILLI.,.METRE.)
);
#408=(
LENGTH_UNIT()
NAMED_UNIT(*)
SI_UNIT($,.METRE.)
);
#409=(
NAMED_UNIT(*)
PLANE_ANGLE_UNIT()
SI_UNIT($,.RADIAN.)
);
#410=(
NAMED_UNIT(*)
SI_UNIT($,.STERADIAN.)
SOLID_ANGLE_UNIT()
);
#411=SHAPE_DEFINITION_REPRESENTATION(#412,#413);
#412=PRODUCT_DEFINITION_SHAPE('',$,#415);
#413=SHAPE_REPRESENTATION('',(#239),#405);
#414=PRODUCT_DEFINITION_CONTEXT('part definition',#419,'design');
#415=PRODUCT_DEFINITION(
'Hexagon Nut DIN 934 - M3 x 0.5 Steel 6 Plain v1',
'Hexagon Nut DIN 934 - M3 x 0.5 Steel 6 Plain v1',#416,#414);
#416=PRODUCT_DEFINITION_FORMATION('',$,#421);
#417=PRODUCT_RELATED_PRODUCT_CATEGORY(
'Hexagon Nut DIN 934 - M3 x 0.5 Steel 6 Plain v1',
'Hexagon Nut DIN 934 - M3 x 0.5 Steel 6 Plain v1',(#421));
#418=APPLICATION_PROTOCOL_DEFINITION('international standard',
'automotive_design',2009,#419);
#419=APPLICATION_CONTEXT(
'Core Data for Automotive Mechanical Design Process');
#420=PRODUCT_CONTEXT('part definition',#419,'mechanical');
#421=PRODUCT('Hexagon Nut DIN 934 - M3 x 0.5 Steel 6 Plain v1',
'Hexagon Nut DIN 934 - M3 x 0.5 Steel 6 Plain v1',
'Hexagon Nut DIN 934 - M3 x 0.5',(#420));
#422=PRESENTATION_STYLE_ASSIGNMENT((#423));
#423=SURFACE_STYLE_USAGE(.BOTH.,#424);
#424=SURFACE_SIDE_STYLE('',(#425));
#425=SURFACE_STYLE_FILL_AREA(#426);
#426=FILL_AREA_STYLE('Stainless Steel - Satin',(#427));
#427=FILL_AREA_STYLE_COLOUR('Stainless Steel - Satin',#428);
#428=COLOUR_RGB('Stainless Steel - Satin',0.796078431372549,0.796078431372549,
0.796078431372549);
ENDSEC;
END-ISO-10303-21;
